<?xml version="1.0" standalone="no"?>
<!DOCTYPE svg PUBLIC "-//W3C//DTD SVG 20010904//EN"
 "http://www.w3.org/TR/2001/REC-SVG-20010904/DTD/svg10.dtd">
<svg version="1.0" xmlns="http://www.w3.org/2000/svg"
 width="1280.000000pt" height="1124.000000pt" viewBox="0 0 1280.000000 1124.000000"
 preserveAspectRatio="xMidYMid meet">
<metadata>
Created by potrace 1.15, written by Peter Selinger 2001-2017
</metadata>
<g transform="translate(0.000000,1124.000000) scale(0.100000,-0.100000)"
fill="#ffffff" stroke="none">
<path d="M6360 11021 c-206 -120 -1714 -988 -3350 -1930 -1636 -942 -2980
-1718 -2986 -1724 -9 -9 -13 -509 -15 -1941 l-4 -1930 695 -401 c382 -221
1745 -1007 3028 -1748 l2333 -1347 1917 1107 c1054 608 2324 1341 2822 1628
498 288 1150 664 1450 837 l545 315 -3 1929 -4 1929 -1500 1401 -1500 1401
-57 13 c-54 11 -646 146 -1101 250 -1154 264 -1834 418 -1865 423 -25 5 -87
-28 -405 -212z m-3260 -5437 c0 -2 -9 0 -20 6 -11 6 -20 13 -20 16 0 2 9 0 20
-6 11 -6 20 -13 20 -16z m120 -70 c0 -2 -9 0 -20 6 -11 6 -20 13 -20 16 0 2 9
0 20 -6 11 -6 20 -13 20 -16z m70 -40 c0 -2 -9 0 -20 6 -11 6 -20 13 -20 16 0
2 9 0 20 -6 11 -6 20 -13 20 -16z m70 -40 c0 -2 -9 0 -20 6 -11 6 -20 13 -20
16 0 2 9 0 20 -6 11 -6 20 -13 20 -16z m70 -40 c0 -2 -9 0 -20 6 -11 6 -20 13
-20 16 0 2 9 0 20 -6 11 -6 20 -13 20 -16z m70 -40 c0 -2 -9 0 -20 6 -11 6
-20 13 -20 16 0 2 9 0 20 -6 11 -6 20 -13 20 -16z m70 -40 c0 -2 -13 2 -30 11
-16 9 -30 18 -30 21 0 2 14 -2 30 -11 17 -9 30 -18 30 -21z m108 -59 c45 -26
82 -49 82 -51 0 -3 -3 -3 -7 -1 -116 66 -173 100 -173 103 0 3 3 3 8 1 4 -2
44 -26 90 -52z m152 -91 c0 -2 -13 2 -30 11 -16 9 -30 18 -30 21 0 2 14 -2 30
-11 17 -9 30 -18 30 -21z m1065 -609 c1183 -680 1177 -676 1172 -681 -5 -5
-2206 1263 -2222 1279 -13 13 -72 47 1050 -598z"/>
</g>
</svg>
