<?xml version="1.0" standalone="no"?>
<!DOCTYPE svg PUBLIC "-//W3C//DTD SVG 20010904//EN"
 "http://www.w3.org/TR/2001/REC-SVG-20010904/DTD/svg10.dtd">
<svg version="1.0" xmlns="http://www.w3.org/2000/svg"
 width="1280.000000pt" height="848.000000pt" viewBox="0 0 1280.000000 848.000000"
 preserveAspectRatio="xMidYMid meet">
<metadata>
Created by potrace 1.15, written by Peter Selinger 2001-2017
</metadata>
<g transform="translate(0.000000,848.000000) scale(0.100000,-0.100000)"
fill="#03a9f4" stroke="none">
<path d="M8320 7318 l-1 -1113 -32 -20 c-37 -23 -99 -111 -95 -134 3 -19 68
-53 104 -55 23 -1 24 -3 24 -79 l0 -78 -62 6 c-35 3 -279 19 -543 35 -264 17
-499 31 -522 33 l-43 2 -1 -170 c-1 -93 -3 -162 -6 -152 -4 14 -16 17 -69 17
l-64 0 2 -405 c2 -265 0 -405 -7 -405 -5 0 -136 7 -290 15 -154 8 -297 15
-317 15 l-38 0 0 48 c0 31 7 55 20 72 23 30 26 87 5 117 -49 70 -155 27 -155
-63 0 -16 13 -39 35 -61 26 -26 35 -43 35 -69 l0 -34 -79 0 c-43 0 -106 3
-140 6 l-61 7 0 46 c1 43 3 48 40 71 101 62 139 201 86 315 -78 169 -287 180
-377 19 -38 -67 -46 -126 -25 -197 25 -87 90 -150 171 -167 27 -5 30 -10 33
-49 l3 -43 -53 5 c-29 4 -128 9 -220 13 l-168 7 0 202 c0 111 -3 351 -7 533
l-6 332 -33 0 -34 0 7 -544 6 -544 -79 -25 -79 -25 -3 124 -3 124 -24 0 -25 0
0 216 0 215 58 -6 c31 -3 74 -8 95 -11 l37 -6 0 45 0 44 -47 6 c-140 18 -364
39 -369 35 -2 -3 -5 -22 -7 -44 l-2 -39 83 -9 82 -8 0 -218 0 -218 -42 4 c-24
2 -153 8 -288 14 -135 6 -293 13 -352 16 l-108 7 0 62 c0 60 1 63 27 70 16 4
33 11 39 16 17 14 1 72 -35 131 l-31 49 0 855 0 854 -40 0 -40 0 0 -1013 c0
-558 -2 -1016 -4 -1018 -4 -3 -501 17 -853 35 l-113 5 0 -163 c0 -121 -3 -166
-13 -174 -7 -6 -37 -12 -67 -14 l-55 -3 0 -575 0 -575 -21 53 c-43 105 -117
175 -187 176 l-42 1 -3 -65 c-2 -36 2 -99 8 -140 12 -78 51 -180 69 -180 13 0
15 -137 5 -278 l-7 -92 -105 0 -105 0 7 714 7 713 -23 7 c-13 3 -40 6 -60 6
-54 0 -68 8 -68 41 l0 29 -224 0 -225 0 -3 -41 c-3 -39 -6 -43 -43 -54 -22 -6
-55 -19 -73 -29 l-32 -17 6 -419 7 -420 -29 0 c-55 0 -58 -7 -51 -128 6 -117
23 -176 55 -186 16 -5 20 -19 26 -74 3 -37 6 -82 6 -99 l0 -33 -165 0 -165 0
0 110 c0 89 3 110 14 110 17 0 29 78 24 155 l-3 50 -40 0 c-38 0 -41 -2 -65
-50 -24 -47 -25 -59 -25 -212 l0 -162 -70 -7 -69 -7 57 -51 57 -51 0 -100 c0
-55 -3 -157 -7 -227 l-6 -126 -102 -7 c-56 -4 -120 -4 -142 0 l-41 6 6 372 c4
299 7 374 18 380 10 6 14 34 14 107 l0 100 -35 0 c-29 0 -39 -6 -55 -32 -19
-32 -20 -52 -20 -485 l0 -453 -45 0 c-29 0 -45 4 -45 13 0 6 -14 111 -30 232
-30 217 -30 221 -14 308 9 49 15 119 12 161 -5 109 -26 134 -208 256 -82 55
-152 100 -156 100 -3 0 -3 -8 1 -17 3 -10 13 -76 21 -148 7 -71 16 -147 19
-167 5 -35 3 -38 -19 -38 -20 0 -25 7 -31 37 -9 48 -37 102 -67 129 -12 12
-84 62 -158 111 l-135 90 3 -202 3 -203 -48 -10 c-26 -6 -90 -19 -142 -28 -80
-16 -94 -22 -102 -42 -14 -35 -11 -92 4 -92 7 0 40 -27 74 -59 64 -62 128
-101 202 -121 24 -6 40 -15 35 -20 -5 -4 -88 -74 -184 -154 -142 -118 -181
-146 -206 -146 l-31 0 -7 -187 c-8 -217 2 -334 40 -455 35 -112 123 -294 227
-471 48 -80 87 -149 87 -152 0 -3 61 -100 136 -216 156 -243 269 -430 309
-509 15 -30 29 -56 30 -58 3 -4 517 -45 903 -72 78 -5 206 -15 285 -20 296
-22 843 -57 1227 -80 828 -49 1481 -83 2340 -120 129 -6 336 -15 460 -20 358
-16 1102 -43 1760 -65 1104 -35 2048 -61 3140 -85 245 -5 573 -12 730 -16
l285 -6 23 193 c35 289 86 647 153 1083 135 874 285 1599 427 2061 78 252 108
328 209 512 32 59 28 77 -23 103 -38 20 -402 26 -604 10 -242 -18 -661 -70
-1060 -131 -308 -47 -984 -159 -989 -165 -3 -2 -7 -23 -10 -47 l-6 -42 -195
-36 c-107 -20 -212 -39 -232 -43 l-38 -7 0 996 0 995 -45 0 -44 0 -3 143 -3
142 -260 17 c-143 9 -392 24 -552 34 l-293 18 0 102 0 102 45 6 c24 4 53 15
64 24 18 16 19 20 7 55 -8 21 -27 56 -42 78 -22 32 -33 40 -51 36 l-23 -4 0
1098 0 1099 -50 0 -50 0 0 -1112z m-835 -1438 c165 -11 306 -20 313 -20 9 0
12 -24 12 -85 l0 -85 -67 0 c-51 1 -567 26 -580 29 -2 1 -3 42 -3 91 0 65 3
90 13 90 6 0 147 -9 312 -20z m638 -41 l197 -12 0 -85 0 -85 -92 6 c-51 4
-162 10 -245 13 l-153 7 0 51 c0 28 -3 68 -7 89 l-6 39 54 -6 c30 -3 143 -11
252 -17z m627 -39 c102 -6 204 -13 228 -16 l42 -5 0 -79 0 -79 -27 4 c-16 2
-151 10 -300 16 l-273 12 0 85 0 84 73 -6 c39 -3 155 -10 257 -16z m535 -35
c116 -8 213 -15 218 -15 4 0 7 -34 7 -76 l0 -75 -142 7 c-79 4 -186 10 -238
13 l-95 6 -3 78 c-3 75 -2 77 20 77 13 0 118 -7 233 -15z m-1762 -80 c153 -8
283 -17 288 -20 5 -4 9 -31 9 -62 l0 -56 -132 6 c-73 4 -212 9 -308 12 -236 8
-220 3 -220 75 l0 60 43 0 c23 0 167 -7 320 -15z m657 -34 l135 -6 3 -59 3
-59 -193 7 c-106 4 -217 9 -245 13 l-53 5 0 60 0 59 108 -7 c59 -3 168 -9 242
-13z m525 -26 c149 -8 280 -15 293 -15 20 0 22 -5 22 -57 l0 -56 -167 7 c-93
3 -228 9 -300 13 l-133 6 0 58 c0 33 3 59 8 59 4 0 129 -7 277 -15z m655 -33
l145 -7 3 -54 3 -53 -233 7 c-128 4 -236 9 -240 12 -10 5 -10 97 -1 107 4 3
45 4 92 0 47 -3 151 -9 231 -12z m-1933 -144 c67 -63 -28 -145 -101 -87 -31
25 -34 61 -6 89 27 27 77 26 107 -2z m347 -23 c79 -73 -24 -172 -125 -120 -33
17 -53 57 -44 86 19 59 120 79 169 34z m368 -44 c35 -40 35 -72 0 -112 -76
-85 -234 -10 -192 92 18 42 55 60 114 55 41 -3 55 -9 78 -35z m-2236 -11 c-34
-41 -49 -100 -49 -190 0 -87 13 -143 48 -194 28 -41 27 -41 -23 -21 -51 22
-81 52 -108 110 -56 118 -9 262 101 311 49 22 59 17 31 -16z m164 -10 c110
-86 112 -264 5 -358 -51 -46 -71 -43 -46 6 56 109 45 298 -22 370 l-22 24 25
-7 c14 -4 41 -19 60 -35z m-73 8 c36 -41 48 -88 48 -193 0 -87 -3 -107 -25
-150 -23 -46 -28 -50 -60 -50 -32 0 -37 4 -59 49 -46 92 -38 273 16 336 30 36
52 38 80 8z m2673 -3 c82 -42 60 -153 -33 -170 -99 -19 -181 71 -131 143 29
42 109 55 164 27z m644 -6 c22 -17 27 -28 24 -58 -3 -30 -9 -39 -39 -54 -61
-29 -119 3 -119 67 0 59 82 86 134 45z m-289 -14 c42 -41 31 -105 -22 -133
-33 -18 -59 -14 -92 14 -39 32 -43 85 -9 121 30 32 90 32 123 -2z m-1720 -49
c72 -14 326 -63 565 -110 599 -117 552 -115 1158 -28 l472 68 0 -878 0 -878
-22 -5 c-55 -13 -1223 -225 -1240 -225 -16 0 -18 12 -19 138 -1 75 -5 247 -8
382 l-6 245 -155 22 c-85 12 -269 34 -407 49 l-253 27 0 335 c0 184 -2 337 -5
340 -2 3 -59 7 -125 10 l-120 5 0 269 c0 252 1 269 18 264 9 -3 76 -16 147
-30z m-3533 -192 c99 -7 98 -6 98 -112 l0 -64 -257 7 c-142 4 -264 8 -270 10
-9 3 -13 30 -13 91 l0 87 178 -7 c97 -3 216 -9 264 -12z m426 -20 l92 -6 0
-79 0 -79 -113 0 c-63 0 -155 3 -205 6 l-92 7 0 84 0 84 113 -6 c61 -3 154 -8
205 -11z m437 -19 c105 -4 198 -9 208 -11 14 -5 17 -18 17 -81 l0 -76 -152 6
c-83 4 -193 7 -245 7 l-93 0 0 86 0 86 38 -6 c20 -3 123 -8 227 -11z m458 -22
l67 -6 0 -73 0 -74 -68 0 c-38 0 -104 3 -146 7 l-77 6 2 74 2 73 76 0 c42 0
106 -3 144 -7z m175 -81 c3 -67 1 -72 -18 -72 -18 0 -20 6 -20 76 0 66 2 75
18 72 14 -3 18 -16 20 -76z m-1410 -47 c8 -3 12 -25 12 -62 l0 -58 -267 6
c-148 4 -269 7 -270 8 -2 0 -3 28 -3 62 l0 61 258 -7 c141 -4 263 -8 270 -10z
m365 -12 l67 -6 0 -53 0 -54 -199 0 -198 0 -7 38 c-14 88 -23 82 132 82 75 0
167 -3 205 -7z m499 -13 l138 0 0 -61 0 -61 -31 6 c-17 3 -128 6 -245 6 l-214
0 0 62 0 61 107 -6 c58 -4 168 -7 245 -7z m438 -65 l0 -56 -142 3 -143 3 -1
53 -2 52 144 0 144 0 0 -55z m108 8 c-2 -27 -8 -39 -20 -41 -15 -3 -18 4 -18
37 0 35 3 41 21 41 17 0 20 -5 17 -37z m555 11 l127 -6 0 -94 0 -94 -68 0
c-38 0 -137 3 -220 7 l-152 6 0 100 0 99 93 -6 c50 -3 149 -8 220 -12z m-383
-98 c0 -81 -2 -94 -17 -99 -10 -2 -26 -8 -35 -12 -16 -6 -18 0 -18 58 l0 66
-42 3 c-23 2 -43 8 -45 13 -2 6 32 23 74 37 43 14 79 27 81 27 1 1 2 -41 2
-93z m690 -6 l0 -90 -55 0 -55 0 0 90 0 90 55 0 55 0 0 -90z m166 77 c1 -1 0
-41 -3 -89 l-6 -88 -73 0 -74 0 0 96 0 97 77 -7 c43 -4 78 -8 79 -9z m301 -11
c0 0 3 -39 4 -86 l4 -85 -33 1 c-17 0 -72 1 -122 2 l-90 2 0 90 0 89 118 -6
c64 -3 118 -6 119 -7z m241 -12 l82 -6 0 -79 0 -79 -150 0 -150 0 0 38 c0 20
-3 60 -6 88 l-6 52 73 -5 c41 -2 111 -6 157 -9z m174 -89 l0 -80 -33 3 c-18 1
-34 4 -35 5 -2 1 -6 37 -10 80 l-7 78 43 -3 42 -3 0 -80z m-1745 69 c-3 -3
-12 -4 -19 -1 -8 3 -5 6 6 6 11 1 17 -2 13 -5z m1981 -76 l3 -78 -56 0 -55 0
0 81 0 80 53 -3 52 -3 3 -77z m122 -5 l0 -78 -55 3 -55 4 0 74 0 74 55 0 55 0
0 -77z m-3820 -3 c56 -56 -23 -146 -82 -93 -10 9 -18 30 -18 46 0 60 59 88
100 47z m285 -15 c73 -72 -28 -178 -109 -114 -20 16 -26 29 -26 59 0 72 84
106 135 55z m275 -10 c59 -30 68 -98 21 -146 -31 -31 -64 -36 -104 -18 -69 31
-64 140 8 170 30 12 43 11 75 -6z m995 -20 c47 -46 27 -97 -42 -110 -31 -6
-40 -3 -55 15 -25 31 -22 66 7 95 31 32 59 32 90 0z m-514 -24 c20 -20 29 -39
29 -61 0 -48 -47 -90 -100 -90 -56 0 -90 34 -90 90 0 56 34 90 90 90 33 0 48
-6 71 -29z m271 12 c25 -22 25 -104 1 -125 -43 -36 -87 -26 -108 26 -33 78 48
153 107 99z m1076 2 c8 -3 12 -30 12 -90 l0 -85 -77 0 c-43 0 -142 -3 -220 -7
l-143 -6 0 99 0 99 208 -3 c114 -2 213 -5 220 -7z m-492 -97 l-1 -103 -37 -3
-38 -3 0 95 0 95 33 10 c17 5 34 10 38 10 3 1 5 -45 5 -101z m684 7 l0 -85
-55 0 -55 0 0 85 0 85 55 0 55 0 0 -85z m160 -2 l0 -88 -75 3 -75 4 0 84 0 84
75 0 75 0 0 -87z m233 77 l87 0 0 -91 0 -91 -31 6 c-17 3 -74 6 -125 6 l-94 0
0 91 0 92 38 -7 c20 -3 76 -6 125 -6z m310 -7 l97 -6 0 -90 0 -90 -147 7 c-81
4 -149 9 -150 10 -2 1 -6 41 -9 89 l-7 87 59 0 c32 0 103 -3 157 -7z m177 -88
c0 -47 1 -88 3 -92 1 -5 -12 -9 -29 -11 -28 -3 -32 0 -38 29 -3 17 -6 60 -6
95 l0 64 35 0 35 0 0 -85z m238 -17 l3 -98 -56 0 -55 0 0 101 0 100 53 -3 52
-3 3 -97z m122 -9 l0 -100 -52 3 -53 3 -3 98 -4 97 56 0 56 0 0 -101z m-3590
-31 c416 -86 454 -92 585 -95 130 -3 153 -1 326 35 l186 38 7 -81 c3 -44 6
-104 6 -132 l0 -53 -83 0 c-46 0 -118 -3 -159 -6 l-75 -7 -7 -80 c-4 -45 -9
-83 -11 -86 -3 -2 -103 -13 -222 -24 -120 -10 -219 -20 -221 -21 -1 -2 -13
-195 -26 -430 -14 -235 -26 -429 -28 -431 -2 -1 -171 0 -375 3 l-373 5 0 728
c0 577 3 729 13 729 6 0 212 -41 457 -92z m1496 -54 c-3 -8 -15 -14 -26 -14
-18 0 -20 6 -20 59 0 54 2 60 23 63 20 3 22 -2 25 -46 2 -27 1 -55 -2 -62z
m-116 28 l0 -58 -124 -22 c-68 -12 -128 -22 -135 -22 -16 0 -15 110 2 111 6 0
62 11 122 24 61 12 116 23 123 24 8 1 12 -17 12 -57z m6939 -677 c32 -16 41
-33 41 -76 0 -74 -108 -109 -164 -53 -76 77 23 181 123 129z m-8911 -415 c-3
-132 -9 -240 -13 -240 -4 0 -7 55 -6 123 1 152 12 357 19 357 2 0 2 -108 0
-240z m-2473 12 c13 -21 27 -53 30 -73 6 -35 5 -36 -25 -43 -18 -3 -46 -6 -62
-6 -27 0 -29 2 -23 33 6 29 -2 43 -89 155 -53 67 -96 124 -96 126 0 3 54 -31
120 -76 77 -50 130 -93 145 -116z m259 -24 c27 -36 28 -39 16 -88 -7 -27 -14
-50 -16 -50 -3 0 -17 6 -32 14 -15 7 -46 17 -68 20 l-41 7 -12 107 c-7 59 -15
132 -18 162 l-6 55 74 -95 c41 -52 87 -112 103 -132z m-443 85 c91 -119 96
-128 87 -157 -10 -31 -12 -32 -104 -46 l-94 -15 0 172 c0 95 3 173 8 172 4 0
50 -57 103 -126z m9539 101 c0 -3 -11 -29 -25 -58 -31 -66 -86 -129 -170 -196
-59 -47 -70 -52 -152 -65 -48 -8 -91 -15 -95 -15 -5 0 -8 56 -8 125 0 91 3
127 13 130 9 4 370 74 430 84 4 0 7 -2 7 -5z m-570 -228 l0 -124 -27 -6 c-16
-3 -156 -26 -313 -51 -157 -25 -296 -48 -310 -50 l-25 -5 3 -116 c6 -192 -26
-316 -103 -402 -25 -27 -61 -57 -80 -66 -29 -14 -393 -78 -402 -72 -3 3 -21
780 -18 784 3 4 1234 230 1258 231 15 1 17 -11 17 -123z m-8583 -337 c-10 -38
-24 -56 -80 -104 -37 -32 -69 -56 -71 -54 -2 2 -6 21 -10 41 -7 36 -5 38 46
71 29 19 69 51 88 71 19 20 36 33 37 29 1 -4 -3 -29 -10 -54z m-175 -133 c3
-43 1 -46 -52 -90 l-55 -45 -9 42 c-5 23 -10 44 -12 45 -1 2 -83 -53 -180
-122 l-178 -126 -78 0 -79 0 178 149 178 148 95 6 c52 3 113 12 135 21 22 8
43 15 46 15 4 1 9 -19 11 -43z m252 -171 c4 -38 10 -80 13 -92 5 -23 4 -23
-106 -23 l-111 0 0 43 c0 43 0 43 93 108 104 74 100 75 111 -36z m-382 55 c4
-40 3 -42 -80 -110 l-84 -70 -81 0 c-44 0 -78 2 -76 4 14 14 304 216 310 216
4 0 9 -18 11 -40z m3748 -118 c0 -110 -51 -222 -124 -271 -41 -27 -235 -56
-242 -36 -3 6 -3 80 -2 165 l3 155 175 21 c96 12 178 22 183 23 4 0 7 -25 7
-57z m-3581 -39 c1 -9 -15 -13 -50 -13 l-52 0 44 34 c43 33 44 33 51 12 3 -11
6 -27 7 -33z m7959 -285 c7 -7 12 -26 12 -43 0 -38 -16 -55 -51 -55 -32 0 -51
21 -51 55 0 14 5 32 12 40 15 18 61 20 78 3z m-458 -207 c0 -34 -4 -51 -15
-55 -12 -4 -15 5 -15 49 0 42 3 55 15 55 11 0 15 -12 15 -49z m-4223 -39 c16
-10 26 -63 15 -79 -4 -7 -22 -15 -39 -19 l-31 -6 -3 51 c-4 44 -1 51 16 54 11
2 22 5 25 5 3 1 11 -2 17 -6z"/>
</g>
</svg>
